<?xml version="1.0" encoding="UTF-8" standalone="no"?>
<svg xmlns:xlink="http://www.w3.org/1999/xlink" height="19.0px" width="19.0px" xmlns="http://www.w3.org/2000/svg">
  <g transform="matrix(1.0, 0.0, 0.0, 1.0, 0.0, 0.0)">
    <use height="19.0" transform="matrix(1.0, 0.0, 0.0, 1.0, 0.0, 0.0)" width="19.0" xlink:href="#shape0"/>
  </g>
  <defs>
    <g id="shape0" transform="matrix(1.0, 0.0, 0.0, 1.0, 0.0, 0.0)">
      <path d="M19.0 9.5 Q19.0 13.45 16.25 16.25 13.45 19.0 9.5 19.0 5.55 19.0 2.8 16.25 0.0 13.45 0.0 9.5 0.0 5.55 2.8 2.75 5.55 0.0 9.5 0.0 13.45 0.0 16.25 2.75 19.0 5.55 19.0 9.5" fill="#000000" fill-rule="evenodd" stroke="none"/>
      <path d="M1.5 9.5 Q1.5 6.2 3.9 3.85 6.2 1.5 9.5 1.5 12.8 1.5 15.1 3.85 17.5 6.2 17.5 9.5 17.5 12.8 15.1 15.15 12.8 17.5 9.5 17.5 6.2 17.5 3.9 15.15 1.5 12.8 1.5 9.5" fill="#ffff00" fill-rule="evenodd" stroke="none"/>
      <path d="M3.7 6.75 L5.2 7.0 Q6.9 7.55 7.9 8.8 5.1 9.4 3.6 10.9 L3.15 10.3 3.9 9.55 Q4.8 8.75 6.05 8.5 L4.6 7.8 3.55 7.45 3.7 6.75" fill="#000000" fill-rule="evenodd" stroke="none"/>
      <path d="M11.8 8.8 Q12.8 7.55 14.5 7.0 L15.95 6.75 16.1 7.45 Q15.95 7.45 15.1 7.8 14.1 8.2 13.65 8.5 14.9 8.75 15.8 9.55 L16.5 10.3 16.1 10.9 Q14.6 9.4 11.8 8.8" fill="#000000" fill-rule="evenodd" stroke="none"/>
      <path d="M4.2 11.75 Q5.5 10.7 7.5 10.2 11.6 9.1 15.5 11.6 14.7 13.0 13.55 13.95 11.9 15.35 10.2 15.35 6.5 15.35 4.2 11.75" fill="#000000" fill-rule="evenodd" stroke="none"/>
      <path d="M5.85 11.35 Q6.75 10.8 7.3 10.8 L7.35 13.35 5.85 11.35" fill="#ffffff" fill-rule="evenodd" stroke="none"/>
      <path d="M13.8 11.35 L12.3 13.35 12.3 10.8 12.7 10.85 Q13.25 11.0 13.8 11.35" fill="#ffffff" fill-rule="evenodd" stroke="none"/>
    </g>
  </defs>
</svg>
